<svg aria-hidden="true" style="position: absolute; width: 0; height: 0; overflow: hidden;" version="1.1" xmlns="http://www.w3.org/2000/svg" xmlns:xlink="http://www.w3.org/1999/xlink">
<defs>
<symbol id="icon-Logo-4" viewBox="0 0 59 32">
<path  d="M15.31 25.356c0.14 0.156 0.215 0.352 0.211 0.553 0.007 0.131-0.019 0.262-0.075 0.383s-0.143 0.229-0.252 0.316c-0.273 0.185-0.61 0.276-0.951 0.255h-1.671v-3.504h1.637c0.323-0.019 0.644 0.063 0.907 0.233 0.106 0.080 0.189 0.18 0.245 0.294s0.080 0.238 0.073 0.361c0.010 0.193-0.058 0.383-0.19 0.536-0.127 0.139-0.303 0.236-0.498 0.274 0.222 0.036 0.422 0.143 0.565 0.3zM13.349 24.827h0.7c0.159 0.011 0.317-0.031 0.445-0.116 0.053-0.043 0.093-0.096 0.12-0.155s0.037-0.123 0.031-0.187c0.005-0.063-0.006-0.127-0.031-0.186s-0.066-0.113-0.117-0.156c-0.132-0.088-0.295-0.13-0.458-0.118h-0.688v0.919zM14.562 26.171c0.056-0.044 0.1-0.099 0.129-0.161s0.041-0.129 0.036-0.195c0.004-0.068-0.009-0.135-0.038-0.198s-0.074-0.118-0.131-0.162c-0.137-0.091-0.305-0.136-0.475-0.127h-0.734v0.964h0.744c0.167 0.009 0.333-0.034 0.47-0.122z"></path>
<path  d="M18.656 26.862l-0.911-1.369h-0.342v1.369h-0.783v-3.504h1.483c0.374-0.023 0.744 0.083 1.033 0.298 0.207 0.19 0.332 0.441 0.353 0.707s-0.066 0.529-0.242 0.743c-0.183 0.189-0.433 0.314-0.707 0.356l0.97 1.4h-0.852zM17.403 25.015h0.641c0.445 0 0.667-0.177 0.667-0.531 0.005-0.072-0.008-0.145-0.036-0.212s-0.072-0.13-0.128-0.181c-0.141-0.105-0.322-0.156-0.504-0.142h-0.648l0.008 1.067z"></path>
<path  d="M22.939 26.157h-1.561l-0.276 0.705h-0.821l1.434-3.465h0.888l1.428 3.465h-0.822l-0.27-0.705zM22.73 25.627l-0.57-1.479-0.57 1.479h1.141z"></path>
<path  d="M28.299 26.863h-0.778l-1.744-2.383v2.383h-0.776v-3.504h0.776l1.744 2.397v-2.397h0.778v3.504z"></path>
<path  d="M32.737 26.024c-0.161 0.265-0.406 0.48-0.704 0.618-0.338 0.154-0.714 0.23-1.093 0.221h-1.384v-3.504h1.384c0.378-0.009 0.754 0.065 1.093 0.216 0.298 0.135 0.543 0.348 0.704 0.611 0.16 0.285 0.243 0.6 0.243 0.919s-0.083 0.634-0.243 0.919zM31.847 25.94c0.222-0.233 0.344-0.529 0.344-0.836s-0.122-0.603-0.344-0.836c-0.268-0.211-0.618-0.318-0.974-0.298h-0.54v2.268h0.54c0.355 0.020 0.705-0.087 0.974-0.298z"></path>
<path  d="M23.425 3.867c0 0 10.038 3.412 9.825 8.349v8.351c0 0-10.031-3.413-9.821-8.351l-0.004-8.349z"></path>
<path  d="M42.194 18.611c1.896-1.175 4.089-1.902 6.378-2.116v-2.614c-2.638 0.915-4.875 2.575-6.378 4.73z"></path>
<path  d="M41.055 19.399c1.552-2.813 4.242-4.983 7.517-6.065v-7.532c0 0-14.296 4.86-13.993 11.891v11.889c0 0 0.637-0.217 1.639-0.625 0-0.38 0-0.764 0.046-1.149 0.296-3.264 2.020-6.289 4.792-8.409z"></path>
<path  d="M39.695 23.815c0.075-0.825 0.243-1.64 0.5-2.434-1.726 1.831-2.772 4.103-2.989 6.497-0.021 0.226-0.032 0.452-0.038 0.685 0.812-0.351 1.757-0.789 2.75-1.304-0.253-1.132-0.328-2.291-0.222-3.443z"></path>
<path  d="M40.264 23.858c-0.095 1.042-0.036 2.090 0.177 3.117 3.906-2.104 8.294-5.355 8.125-9.284v-0.342c-2.791 0.281-5.401 1.379-7.431 3.126-0.475 1.082-0.769 2.222-0.871 3.383z"></path>
</symbol>
<symbol id="icon-twitter-1" viewBox="0 0 32 32">
<path  d="M32.011 6.080c-1.1 0.494-2.377 0.858-3.713 1.029l-0.068 0.007c1.36-0.817 2.382-2.079 2.874-3.581l0.013-0.046c-1.198 0.723-2.592 1.274-4.077 1.574l-0.084 0.014c-1.2-1.279-2.902-2.076-4.79-2.076-3.624 0-6.562 2.938-6.562 6.562v0c0 0.52 0.044 1.020 0.152 1.497-5.47-0.276-10.282-2.879-13.5-6.831l-0.027-0.034c-0.563 0.949-0.896 2.092-0.896 3.312 0 2.265 1.146 4.262 2.889 5.444l0.023 0.015c-1.092-0.030-2.11-0.325-2.998-0.823l0.033 0.017v0.072c0.004 3.165 2.238 5.808 5.215 6.441l0.043 0.008c-0.501 0.137-1.076 0.216-1.669 0.216-0.018 0-0.036-0-0.054-0l0.003 0c-0.031 0.001-0.067 0.001-0.103 0.001-0.403 0-0.797-0.041-1.177-0.119l0.038 0.006c0.873 2.625 3.275 4.497 6.124 4.571l0.009 0c-2.215 1.745-5.046 2.799-8.122 2.799-0.005 0-0.010 0-0.015 0h0.001c-0.538 0-1.054-0.024-1.571-0.090 2.827 1.847 6.289 2.945 10.007 2.945 0.021 0 0.042-0 0.063-0h-0.003c12.076 0 18.679-10.004 18.679-18.675 0-0.29-0.010-0.57-0.024-0.848 1.299-0.937 2.392-2.067 3.259-3.36l0.030-0.047z"></path>
</symbol>
<symbol id="icon-twitter-2" viewBox="0 0 32 32">
<path  d="M32.011 6.081c-1.19 0.522-2.458 0.867-3.781 1.035 1.361-0.817 2.383-2.079 2.875-3.58l0.013-0.046c-1.198 0.723-2.592 1.274-4.077 1.574l-0.084 0.014c-1.2-1.281-2.903-2.079-4.791-2.079-3.624 0-6.561 2.937-6.561 6.561 0 0.002 0 0.004 0 0.006v-0c0 0.52 0.044 1.019 0.152 1.495-5.457-0.265-10.284-2.881-13.527-6.864-0.563 0.951-0.896 2.095-0.898 3.317v0c0 2.273 1.17 4.287 2.914 5.454-1.093-0.030-2.11-0.326-2.998-0.825l0.033 0.017v0.072c0.004 3.165 2.238 5.808 5.215 6.441l0.043 0.008c-0.534 0.145-1.116 0.216-1.721 0.216-0.031 0.001-0.067 0.001-0.104 0.001-0.403 0-0.797-0.041-1.177-0.119l0.038 0.006c0.851 2.598 3.264 4.508 6.133 4.571-2.215 1.745-5.046 2.8-8.124 2.8-0.004 0-0.009 0-0.013 0h0.001c-0.539 0-1.055-0.024-1.571-0.091 2.827 1.847 6.289 2.945 10.008 2.945 0.021 0 0.042-0 0.063-0h-0.003c12.076 0 18.679-10.004 18.679-18.675 0-0.289-0.011-0.57-0.024-0.848 1.299-0.937 2.392-2.067 3.259-3.359l0.030-0.047z"></path>
</symbol>
<symbol id="icon-Logo" viewBox="0 0 32 32">
<path  d="M11.693 9.539l2.156 2.054-4.003-0.002v9.967h10.462v-3.811l2.154 2.052v-10.261h-10.77zM20.215 17.506l-6.114-5.825h6.114v5.825zM18.316 20.1h-6.814v-6.703h0.482v6.25h6.332v0.454zM12.861 23.405l-0.254-0.523h-0.21l0.368 0.691v0.403h0.19v-0.403l0.368-0.691h-0.209l-0.254 0.522zM13.797 22.883h0.045l0.413 1.094h-0.198l-0.089-0.256h-0.423l-0.088 0.256h-0.198l0.412-1.094h0.126zM13.597 23.571h0.32l-0.16-0.464-0.16 0.464zM14.919 23.389c-0.003-0.004-0.011-0.014-0.019-0.024l-0.005-0.007c-0.024-0.031-0.046-0.066-0.064-0.104l-0.001-0.003c-0.015-0.032-0.023-0.069-0.023-0.108 0-0 0-0 0-0v0c0-0.057 0.012-0.106 0.035-0.147s0.058-0.073 0.099-0.094l0.001-0.001c0.043-0.022 0.094-0.034 0.151-0.034 0.056 0 0.104 0.011 0.144 0.034 0.076 0.040 0.127 0.119 0.127 0.209 0 0.034-0.007 0.066-0.020 0.095l0.001-0.002c-0.014 0.030-0.031 0.056-0.052 0.078l0-0c-0.023 0.024-0.048 0.046-0.075 0.066l-0.002 0.001-0.076 0.055 0.217 0.255c0.030-0.057 0.047-0.125 0.047-0.197 0-0.003-0-0.006-0-0.008v0h0.156c0 0.053-0.005 0.103-0.016 0.151-0.015 0.069-0.042 0.13-0.081 0.182l0.001-0.001 0.16 0.189h-0.209l-0.064-0.075c-0.032 0.025-0.069 0.046-0.109 0.061l-0.003 0.001c-0.049 0.018-0.106 0.028-0.166 0.028-0.001 0-0.003 0-0.004-0h0c-0.073 0-0.135-0.013-0.189-0.040-0.051-0.025-0.093-0.062-0.122-0.108l-0.001-0.001c-0.027-0.044-0.043-0.098-0.043-0.155 0-0.002 0-0.004 0-0.005v0c0-0.045 0.009-0.084 0.028-0.117s0.044-0.066 0.076-0.095c0.030-0.027 0.063-0.054 0.102-0.080zM15.009 23.5l-0.023 0.016c-0.023 0.018-0.043 0.038-0.059 0.062l-0.001 0.001c-0.019 0.028-0.031 0.063-0.031 0.101 0 0.030 0.008 0.059 0.021 0.084l-0-0.001c0.014 0.026 0.035 0.048 0.060 0.062l0.001 0c0.027 0.014 0.059 0.023 0.093 0.023 0.002 0 0.004-0 0.006-0h-0c0.042 0 0.082-0.009 0.121-0.028 0.021-0.011 0.039-0.022 0.056-0.035l-0.001 0.001-0.243-0.286zM15.052 23.3l0.067-0.045c0.027-0.016 0.049-0.037 0.067-0.061l0-0.001c0.013-0.020 0.020-0.045 0.020-0.072 0-0.002-0-0.004-0-0.005v0c-0.002-0.059-0.050-0.105-0.109-0.105-0.002 0-0.004 0-0.007 0h0c-0.001-0-0.002-0-0.003-0-0.045 0-0.083 0.026-0.101 0.064l-0 0.001c-0.008 0.018-0.013 0.040-0.013 0.062 0 0.026 0.007 0.051 0.018 0.073l-0-0.001c0.011 0.024 0.027 0.048 0.047 0.074l0.012 0.016zM16.966 23.621h-0.188c-0.004 0.045-0.017 0.086-0.035 0.123l0.001-0.002c-0.017 0.032-0.043 0.058-0.075 0.074l-0.001 0c-0.035 0.016-0.075 0.026-0.118 0.026-0.004 0-0.008-0-0.012-0l0.001 0c-0.002 0-0.004 0-0.006 0-0.039 0-0.076-0.010-0.109-0.027l0.001 0.001c-0.032-0.018-0.059-0.043-0.078-0.074l-0.001-0.001c-0.020-0.033-0.036-0.071-0.044-0.112l-0-0.002c-0.009-0.043-0.015-0.093-0.015-0.144 0-0.002 0-0.004 0-0.006v0-0.092c0-0.058 0.005-0.11 0.016-0.155s0.028-0.084 0.049-0.115c0.020-0.030 0.047-0.054 0.079-0.070l0.001-0.001c0.031-0.015 0.068-0.024 0.107-0.024 0.002 0 0.004 0 0.006 0h-0c0.052 0 0.095 0.009 0.128 0.027s0.057 0.043 0.074 0.077c0.017 0.033 0.028 0.074 0.033 0.121h0.188c-0.007-0.072-0.029-0.139-0.063-0.197l0.001 0.002c-0.034-0.057-0.081-0.102-0.138-0.132l-0.002-0.001c-0.060-0.031-0.131-0.049-0.207-0.049-0.005 0-0.010 0-0.015 0l0.001-0c-0.069 0-0.13 0.012-0.186 0.036s-0.102 0.058-0.141 0.105c-0.039 0.046-0.070 0.1-0.089 0.159l-0.001 0.003c-0.021 0.063-0.031 0.135-0.031 0.213v0.091c0 0.078 0.010 0.15 0.030 0.213s0.050 0.118 0.089 0.163c0.038 0.045 0.085 0.079 0.139 0.104s0.115 0.036 0.183 0.036c0.088 0 0.163-0.016 0.225-0.048s0.109-0.076 0.143-0.132c0.034-0.056 0.054-0.12 0.060-0.191zM18.009 23.46v-0.060c0-0.082-0.011-0.157-0.033-0.222-0.021-0.065-0.052-0.121-0.093-0.168l0.001 0.001c-0.039-0.045-0.087-0.081-0.141-0.105l-0.003-0.001c-0.055-0.025-0.117-0.037-0.185-0.037s-0.129 0.012-0.184 0.037c-0.055 0.024-0.103 0.059-0.144 0.106s-0.071 0.102-0.093 0.168c-0.021 0.063-0.033 0.136-0.033 0.212 0 0.003 0 0.007 0 0.010v-0.001 0.060c0 0.083 0.011 0.157 0.033 0.222s0.054 0.12 0.095 0.168l-0.001-0.001c0.041 0.046 0.089 0.082 0.143 0.106s0.117 0.036 0.184 0.036c0.068 0 0.129-0.012 0.185-0.036s0.103-0.060 0.143-0.106c0.040-0.046 0.071-0.102 0.092-0.167s0.032-0.14 0.032-0.222zM17.821 23.398v0.062c0 0.061-0.006 0.115-0.018 0.162-0.010 0.045-0.028 0.085-0.052 0.121l0.001-0.001c-0.021 0.031-0.049 0.055-0.081 0.072l-0.001 0.001c-0.031 0.015-0.068 0.024-0.107 0.024-0.002 0-0.003-0-0.005-0h0c-0.001 0-0.003 0-0.005 0-0.039 0-0.075-0.009-0.108-0.025l0.001 0.001c-0.034-0.018-0.062-0.042-0.084-0.072l-0-0.001c-0.024-0.034-0.042-0.074-0.052-0.117l-0-0.002c-0.012-0.046-0.018-0.099-0.018-0.154 0-0.003 0-0.006 0-0.009v0-0.062c0-0.061 0.006-0.115 0.018-0.162s0.029-0.086 0.052-0.118c0.021-0.030 0.049-0.055 0.082-0.071l0.001-0.001c0.031-0.016 0.068-0.025 0.107-0.025 0.002 0 0.003 0 0.005 0h-0c0.042 0 0.079 0.008 0.112 0.025s0.061 0.040 0.083 0.072c0.023 0.031 0.041 0.071 0.052 0.118s0.018 0.101 0.018 0.162z"></path>
</symbol>
<symbol id="icon-Logo-5" viewBox="0 0 32 32">
<path  d="M16.472 15.829c-0.118-0.152-0.189-0.345-0.189-0.554 0-0.021 0.001-0.041 0.002-0.061l-0 0.003v-0.889c0-0.272 0.062-0.479 0.186-0.621s0.336-0.212 0.637-0.212c0.283 0 0.484 0.060 0.602 0.181 0.129 0.154 0.192 0.342 0.178 0.531v0.209h-0.506v-0.212c0.002-0.069-0.003-0.138-0.015-0.207-0.009-0.050-0.035-0.093-0.072-0.123l-0-0c-0.045-0.030-0.101-0.049-0.161-0.049-0.008 0-0.015 0-0.023 0.001l0.001-0c-0.007-0.001-0.014-0.001-0.022-0.001-0.064 0-0.123 0.019-0.172 0.052l0.001-0.001c-0.042 0.034-0.072 0.080-0.083 0.134l-0 0.002c-0.013 0.061-0.020 0.131-0.020 0.203 0 0.006 0 0.012 0 0.018v-0.001 1.079c-0.001 0.012-0.002 0.026-0.002 0.041 0 0.096 0.025 0.186 0.068 0.265l-0.001-0.003c0.026 0.033 0.060 0.058 0.099 0.073l0.002 0.001c0.041 0.016 0.086 0.022 0.131 0.017 0.065 0.005 0.129-0.013 0.179-0.049 0.039-0.033 0.066-0.078 0.075-0.13l0-0.001c0.012-0.071 0.017-0.144 0.016-0.216v-0.219h0.506v0.2c0.001 0.016 0.002 0.034 0.002 0.052 0 0.192-0.067 0.369-0.178 0.508l0.001-0.002c-0.116 0.132-0.314 0.198-0.605 0.198s-0.511-0.070-0.636-0.217zM18.579 15.839c-0.128-0.138-0.192-0.34-0.192-0.607v-0.935c0-0.264 0.064-0.464 0.192-0.599s0.342-0.203 0.641-0.202c0.298 0 0.51 0.068 0.638 0.202s0.193 0.335 0.193 0.599v0.935c0 0.264-0.065 0.466-0.195 0.606s-0.342 0.209-0.636 0.209-0.512-0.070-0.641-0.208zM19.456 15.614c0.046-0.087 0.067-0.182 0.061-0.277v-1.145c0.001-0.009 0.001-0.020 0.001-0.030 0-0.088-0.022-0.171-0.062-0.243l0.001 0.003c-0.027-0.033-0.061-0.059-0.101-0.074l-0.002-0.001c-0.029-0.011-0.063-0.018-0.099-0.018-0.012 0-0.024 0.001-0.036 0.002l0.001-0c-0.010-0.001-0.022-0.002-0.034-0.002-0.036 0-0.070 0.007-0.102 0.019l0.002-0.001c-0.042 0.016-0.077 0.041-0.104 0.074l-0 0c-0.046 0.085-0.067 0.178-0.061 0.271v1.15c-0.006 0.095 0.014 0.19 0.061 0.277 0.030 0.029 0.066 0.052 0.107 0.069 0.039 0.015 0.083 0.024 0.13 0.024s0.091-0.009 0.132-0.025l-0.002 0.001c0.041-0.016 0.077-0.040 0.107-0.069v-0.006zM20.66 13.523h0.545l0.41 1.725 0.419-1.725h0.53l0.054 2.489h-0.392l-0.042-1.73-0.404 1.73h-0.314l-0.419-1.736-0.039 1.736h-0.396l0.049-2.489zM23.227 13.523h0.849c0.489 0 0.733 0.236 0.733 0.707 0 0.451-0.258 0.677-0.772 0.676h-0.289v1.107h-0.524l0.003-2.49zM23.952 14.587c0.052 0.006 0.104 0.002 0.154-0.012s0.095-0.036 0.134-0.066c0.049-0.066 0.078-0.148 0.078-0.238 0-0.015-0.001-0.030-0.002-0.045l0 0.002c0-0.009 0.001-0.019 0.001-0.029 0-0.070-0.009-0.138-0.027-0.203l0.001 0.005c-0.008-0.026-0.022-0.049-0.039-0.068l0 0c-0.018-0.020-0.040-0.037-0.065-0.050l-0.001-0.001c-0.061-0.026-0.131-0.040-0.206-0.040-0.010 0-0.020 0-0.030 0.001l0.001-0h-0.203v0.744h0.203zM25.565 13.523h0.563l0.577 2.489h-0.488l-0.114-0.574h-0.502l-0.118 0.574h-0.495l0.577-2.49zM26.046 15.15l-0.196-1.045-0.196 1.045h0.392zM27.171 13.523h0.367l0.702 1.42v-1.42h0.435v2.489h-0.349l-0.706-1.482v1.482h-0.449l0.001-2.489zM29.693 15.063l-0.583-1.537h0.491l0.356 0.987 0.334-0.987h0.481l-0.576 1.537v0.949h-0.503v-0.949zM17.281 17.101v0.13h-0.428v1.011h-0.179v-1.011h-0.43v-0.13h1.036zM18.621 18.242h-0.138c-0.001 0-0.002 0-0.004 0-0.013 0-0.025-0.004-0.035-0.011l0 0c-0.010-0.006-0.018-0.015-0.023-0.026l-0-0-0.124-0.271h-0.593l-0.124 0.271c-0.004 0.012-0.010 0.022-0.018 0.031v0c-0.010 0.007-0.022 0.011-0.036 0.011-0.001 0-0.002-0-0.004-0h-0.138l0.524-1.142h0.182l0.53 1.137zM17.753 17.819h0.494l-0.209-0.465c-0.013-0.029-0.027-0.065-0.038-0.102l-0.001-0.006c-0.007 0.022-0.014 0.042-0.020 0.061l-0.019 0.048-0.207 0.464zM19.524 18.13c0.033 0.002 0.066 0.002 0.098 0 0.028-0.002 0.056-0.007 0.084-0.014 0.030-0.006 0.055-0.013 0.080-0.022l-0.005 0.001c0.023-0.008 0.046-0.018 0.070-0.028v-0.257h-0.21c-0.001 0-0.002 0-0.003 0-0.005 0-0.009-0.001-0.013-0.002l0 0c-0.005-0.002-0.009-0.004-0.013-0.007l0 0c-0.003-0.002-0.006-0.006-0.008-0.009l-0-0c-0.002-0.003-0.003-0.007-0.003-0.010 0-0 0-0.001 0-0.001v0-0.088h0.407v0.438c-0.064 0.040-0.137 0.072-0.215 0.092l-0.006 0.001c-0.043 0.011-0.087 0.018-0.131 0.023-0.046 0.005-0.099 0.007-0.153 0.007-0 0-0 0-0 0v0c-0.002 0-0.004 0-0.006 0-0.092 0-0.181-0.016-0.264-0.044l0.006 0.002c-0.081-0.028-0.15-0.068-0.21-0.12l0.001 0.001c-0.056-0.050-0.102-0.11-0.134-0.178l-0.001-0.003c-0.030-0.067-0.048-0.146-0.048-0.229 0-0.003 0-0.005 0-0.008v0c-0-0.002-0-0.005-0-0.007 0-0.084 0.017-0.163 0.049-0.235l-0.001 0.004c0.030-0.068 0.076-0.129 0.135-0.181s0.131-0.092 0.209-0.118c0.090-0.029 0.185-0.043 0.281-0.042 0.049 0 0.098 0.003 0.146 0.010 0.043 0.006 0.084 0.016 0.125 0.029 0.037 0.012 0.072 0.027 0.105 0.045s0.063 0.038 0.091 0.060l-0.050 0.071c-0.004 0.007-0.010 0.012-0.017 0.015l-0 0c-0.007 0.004-0.015 0.006-0.024 0.006h-0c-0.012-0-0.023-0.004-0.033-0.009l0 0c-0.021-0.010-0.038-0.019-0.054-0.029l0.003 0.002c-0.020-0.011-0.043-0.021-0.067-0.030l-0.003-0.001c-0.027-0.010-0.059-0.018-0.092-0.025l-0.004-0.001c-0.038-0.006-0.081-0.010-0.126-0.010-0.002 0-0.005 0-0.007 0h0c-0.002-0-0.004-0-0.006-0-0.070 0-0.137 0.012-0.2 0.033l0.004-0.001c-0.060 0.021-0.111 0.052-0.154 0.091l0-0c-0.044 0.041-0.077 0.089-0.098 0.142-0.022 0.057-0.035 0.122-0.035 0.19s0.013 0.134 0.036 0.194l-0.001-0.004c0.023 0.054 0.059 0.102 0.105 0.144 0.043 0.039 0.095 0.070 0.153 0.090 0.067 0.020 0.137 0.027 0.207 0.022zM21.194 18.112h0.572v0.13h-0.747v-1.142h0.179l-0.004 1.011zM22.361 18.242h-0.179v-1.142h0.179v1.142zM23.027 17.106c0.011 0.005 0.020 0.012 0.028 0.021l0 0 0.766 0.861c-0-0.006-0.001-0.013-0.001-0.020s0-0.014 0.001-0.021l-0 0.001v-0.851h0.156v1.147h-0.090c-0.002 0-0.004 0-0.006 0-0.012 0-0.023-0.002-0.034-0.007l0.001 0c-0.011-0.006-0.020-0.013-0.028-0.021l-0-0-0.765-0.86v0.888h-0.15v-1.142h0.093c0.010 0 0.020 0.002 0.030 0.005zM25.296 17.101v0.126h-0.635v0.377h0.514v0.121h-0.514v0.39h0.635v0.126h-0.819v-1.139h0.819zM6.522 10.049l7.955 1.949v6.83l-7.955-1.948v-6.831zM6.012 9.467v7.745l8.975 2.2v-7.744l-8.975-2.2z"></path>
<path  d="M10.822 23.007l-8.976-2.201v-7.744l8.976 2.2v7.745z"></path>
<path  d="M6.16 9.962l7.851 1.924-3.339 2.882-7.853-1.926 3.34-2.881zM6.012 9.467l-4.166 3.594 8.976 2.2 4.165-3.594-8.975-2.2zM11.327 22.571l3.659-3.158-3.66-0.898v4.056z"></path>
</symbol>
<symbol id="icon-Logo-3" viewBox="0 0 32 32">
<path  d="M7.409 14.006h-0.001c-0.734 0-1.329 0.537-1.329 1.198v0.001c0 0.662 0.595 1.198 1.329 1.198h0.001c0.734 0 1.329-0.536 1.329-1.198v-0.001c0-0.662-0.595-1.198-1.329-1.198zM17.22 13.623c-0.002-0.919-0.408-1.8-1.129-2.451s-1.698-1.016-2.718-1.018c-1.020 0.002-1.997 0.368-2.719 1.018s-1.127 1.531-1.129 2.451v5.069s7.694-0.772 7.694-5.068v-0.001zM3.385 20.356c0.002 0.64 0.284 1.253 0.786 1.705s1.182 0.707 1.891 0.709c0.709-0.002 1.389-0.257 1.891-0.709s0.784-1.065 0.786-1.705v-3.527s-5.354 0.538-5.354 3.526zM6.062 20.988c-0.138 0-0.274-0.037-0.39-0.106-0.112-0.067-0.201-0.164-0.256-0.28l-0.002-0.004c-0.034-0.071-0.053-0.154-0.053-0.242 0-0.044 0.005-0.086 0.014-0.127l-0.001 0.004c0.030-0.13 0.098-0.24 0.191-0.323l0.001-0.001c0.098-0.087 0.22-0.148 0.355-0.172l0.004-0.001c0.136-0.025 0.277-0.012 0.405 0.036s0.238 0.129 0.314 0.233c0.077 0.104 0.118 0.226 0.118 0.351 0 0.083-0.018 0.166-0.053 0.243s-0.087 0.147-0.152 0.206c-0.064 0.058-0.14 0.104-0.223 0.136l-0.005 0.002c-0.080 0.031-0.172 0.048-0.268 0.048-0 0-0.001 0-0.001 0h0v-0.002zM10.957 19.852v1.313h-0.27v-1.313h0.27zM11.481 20.413v0.211h-0.597v-0.211h0.597zM11.543 19.852v0.212h-0.659v-0.212h0.66zM12.779 20.478v0.062c0 0.1-0.014 0.19-0.041 0.269-0.026 0.078-0.065 0.146-0.115 0.204l0.001-0.001c-0.049 0.055-0.108 0.098-0.177 0.127-0.064 0.028-0.14 0.044-0.218 0.044-0.003 0-0.006-0-0.009-0h0c-0.082 0-0.158-0.015-0.226-0.044-0.070-0.030-0.128-0.073-0.176-0.127l-0-0c-0.050-0.057-0.090-0.125-0.115-0.199l-0.001-0.004c-0.026-0.077-0.041-0.165-0.041-0.257 0-0.004 0-0.008 0-0.013v0.001-0.062c0-0.1 0.014-0.19 0.041-0.269 0.026-0.078 0.065-0.146 0.115-0.204l-0.001 0.001c0.050-0.056 0.109-0.098 0.177-0.128s0.144-0.044 0.226-0.044c0.083 0 0.158 0.015 0.226 0.044s0.127 0.072 0.177 0.128c0.050 0.056 0.088 0.123 0.115 0.203 0.028 0.078 0.042 0.168 0.042 0.268zM12.505 20.54v-0.064c0-0.070-0.006-0.131-0.019-0.184-0.011-0.051-0.031-0.095-0.057-0.135l0.001 0.001c-0.023-0.034-0.053-0.062-0.089-0.081l-0.001-0.001c-0.034-0.017-0.074-0.028-0.116-0.028-0.002 0-0.004 0-0.005 0h0c-0.046 0-0.086 0.009-0.122 0.028-0.037 0.020-0.067 0.047-0.089 0.080l-0.001 0.001c-0.025 0.038-0.044 0.083-0.055 0.131l-0.001 0.003c-0.012 0.052-0.019 0.111-0.019 0.172 0 0.004 0 0.008 0 0.012v-0.001 0.064c0 0.069 0.006 0.13 0.019 0.184s0.031 0.098 0.056 0.134c0.025 0.036 0.055 0.063 0.090 0.082s0.076 0.028 0.122 0.028c0.046 0 0.086-0.009 0.122-0.028 0.037-0.020 0.067-0.048 0.089-0.081l0.001-0.001c0.024-0.037 0.042-0.082 0.055-0.134s0.019-0.112 0.019-0.173c0-0.004-0-0.008-0-0.012v0.001zM13.656 20.821c0-0.001 0-0.002 0-0.003 0-0.022-0.004-0.042-0.011-0.061l0 0.001c-0.008-0.021-0.021-0.039-0.038-0.052l-0-0c-0.023-0.019-0.049-0.035-0.076-0.047l-0.002-0.001c-0.035-0.016-0.078-0.033-0.123-0.047l-0.008-0.002c-0.069-0.022-0.125-0.044-0.18-0.069l0.010 0.004c-0.054-0.024-0.1-0.052-0.142-0.085l0.002 0.001c-0.039-0.031-0.071-0.068-0.094-0.111l-0.001-0.002c-0.022-0.041-0.035-0.090-0.035-0.142 0-0.002 0-0.004 0-0.007v0c-0-0.001-0-0.003-0-0.004 0-0.053 0.013-0.103 0.037-0.146l-0.001 0.002c0.024-0.045 0.058-0.084 0.101-0.115s0.094-0.058 0.153-0.075c0.060-0.017 0.125-0.026 0.196-0.026 0.097 0 0.181 0.018 0.253 0.052s0.128 0.083 0.168 0.143c0.040 0.061 0.060 0.13 0.060 0.208h-0.269c0-0.001 0-0.003 0-0.005 0-0.035-0.009-0.068-0.025-0.097l0.001 0.001c-0.016-0.030-0.041-0.054-0.071-0.069l-0.001-0c-0.033-0.016-0.071-0.025-0.111-0.025-0.003 0-0.007 0-0.010 0h0c-0.003-0-0.006-0-0.009-0-0.039 0-0.076 0.008-0.11 0.022l0.002-0.001c-0.029 0.012-0.053 0.032-0.070 0.056l-0 0.001c-0.014 0.022-0.023 0.048-0.023 0.077 0 0.001 0 0.002 0 0.003v-0c0 0.022 0.005 0.042 0.016 0.060 0.014 0.020 0.031 0.037 0.050 0.050l0.001 0c0.022 0.016 0.049 0.030 0.082 0.044s0.070 0.027 0.113 0.041c0.072 0.022 0.134 0.046 0.189 0.073s0.1 0.057 0.137 0.091c0.037 0.034 0.064 0.072 0.083 0.114s0.028 0.091 0.028 0.145c0 0.004 0 0.008 0 0.013 0 0.105-0.051 0.197-0.129 0.254l-0.001 0.001c-0.042 0.031-0.092 0.055-0.15 0.071s-0.123 0.025-0.196 0.025c-0.065 0-0.129-0.009-0.192-0.026-0.066-0.018-0.123-0.045-0.174-0.080l0.002 0.001c-0.051-0.035-0.092-0.079-0.121-0.131l-0.001-0.002c-0.031-0.054-0.046-0.118-0.046-0.192h0.271c0 0.041 0.006 0.075 0.019 0.104s0.030 0.050 0.053 0.068l0 0c0.024 0.017 0.051 0.030 0.082 0.038l0.002 0c0.032 0.008 0.068 0.012 0.106 0.012 0.003 0 0.007 0 0.010 0 0.038 0 0.074-0.007 0.107-0.021l-0.002 0.001c0.053-0.021 0.090-0.073 0.090-0.133 0-0.001 0-0.001 0-0.002v0zM14.698 19.852v1.313h-0.27v-1.313h0.27zM15.102 19.852v0.212h-1.071v-0.212h1.071zM16.137 20.954v0.211h-0.699v-0.211h0.699zM15.527 19.852v1.313h-0.271v-1.313h0.271zM16.046 20.386v0.206h-0.608v-0.206h0.608zM16.136 19.852v0.212h-0.698v-0.212h0.698zM16.295 19.852h0.489c0.101 0 0.187 0.015 0.259 0.045s0.129 0.075 0.168 0.134 0.058 0.131 0.058 0.217c0 0.070-0.012 0.131-0.036 0.181s-0.058 0.092-0.099 0.125l-0.001 0.001c-0.043 0.033-0.093 0.060-0.147 0.078l-0.004 0.001-0.086 0.045h-0.426l-0.002-0.211h0.316c0.003 0 0.006 0 0.009 0 0.040 0 0.077-0.009 0.111-0.026l-0.001 0.001c0.030-0.016 0.055-0.040 0.070-0.070l0-0.001c0.015-0.029 0.024-0.063 0.024-0.1 0-0.002-0-0.003-0-0.005v0c0-0.002 0-0.004 0-0.006 0-0.037-0.009-0.073-0.024-0.104l0.001 0.001c-0.016-0.031-0.040-0.055-0.070-0.070l-0.001-0c-0.033-0.016-0.071-0.025-0.111-0.025-0.003 0-0.006 0-0.009 0h-0.219v1.101h-0.27v-1.313zM17.028 21.165l-0.299-0.585 0.286-0.002 0.303 0.575v0.012h-0.289zM18.448 20.697h-0.334v-0.211h0.334c0.003 0 0.007 0 0.011 0 0.042 0 0.082-0.009 0.117-0.026l-0.002 0.001c0.031-0.016 0.055-0.041 0.071-0.071l0-0.001c0.014-0.031 0.022-0.068 0.022-0.106s-0.008-0.075-0.023-0.108l0.001 0.002c-0.015-0.034-0.040-0.062-0.070-0.081l-0.001-0c-0.033-0.019-0.073-0.031-0.116-0.031-0.003 0-0.007 0-0.010 0l0-0h-0.241v1.101h-0.27v-1.313h0.511c0.103 0 0.191 0.018 0.265 0.056s0.13 0.087 0.169 0.152c0.039 0.065 0.058 0.139 0.058 0.222 0 0.085-0.019 0.158-0.058 0.22s-0.095 0.11-0.169 0.143c-0.074 0.034-0.162 0.050-0.265 0.050zM20.008 20.954v0.211h-0.699v-0.211h0.699zM19.398 19.852v1.313h-0.271v-1.313h0.271zM19.917 20.386v0.206h-0.607v-0.206h0.608zM20.007 19.852v0.212h-0.698v-0.212h0.698zM20.771 19.852v1.313h-0.27v-1.313h0.27zM21.174 19.852v0.212h-1.071v-0.212h1.071zM22.209 20.954v0.211h-0.699v-0.211h0.699zM21.599 19.852v1.313h-0.27v-1.313h0.27zM22.118 20.386v0.206h-0.607v-0.206h0.607zM22.208 19.852v0.212h-0.698v-0.212h0.698zM22.367 19.852h0.489c0.101 0 0.187 0.015 0.259 0.045s0.129 0.075 0.168 0.134c0.039 0.059 0.058 0.131 0.058 0.217 0 0.070-0.012 0.131-0.036 0.181s-0.058 0.092-0.099 0.125l-0.001 0.001c-0.043 0.033-0.093 0.060-0.147 0.078l-0.004 0.001-0.086 0.045h-0.426l-0.002-0.211h0.317c0.003 0 0.006 0 0.009 0 0.040 0 0.077-0.009 0.111-0.026l-0.001 0.001c0.030-0.016 0.054-0.040 0.070-0.070l0-0.001c0.016-0.029 0.025-0.064 0.025-0.1 0-0.002 0-0.003-0-0.004v0c0-0.002 0-0.004 0-0.005 0-0.038-0.009-0.073-0.024-0.105l0.001 0.001c-0.016-0.031-0.040-0.055-0.070-0.070l-0.001-0c-0.033-0.016-0.071-0.025-0.111-0.025-0.003 0-0.006 0-0.009 0h-0.219v1.101h-0.27v-1.313zM23.101 21.165l-0.299-0.585 0.286-0.002 0.303 0.575v0.012h-0.289zM24.233 20.821c0-0.001 0-0.001 0-0.002 0-0.022-0.004-0.043-0.012-0.062l0 0.001c-0.008-0.021-0.021-0.039-0.038-0.052l-0-0c-0.023-0.019-0.049-0.035-0.076-0.047l-0.002-0.001c-0.035-0.016-0.078-0.033-0.123-0.047l-0.008-0.002c-0.069-0.022-0.125-0.044-0.18-0.069l0.010 0.004c-0.054-0.024-0.1-0.052-0.142-0.085l0.002 0.001c-0.039-0.031-0.071-0.068-0.094-0.111l-0.001-0.002c-0.022-0.041-0.035-0.090-0.035-0.142 0-0.002 0-0.004 0-0.007v0c-0-0.001-0-0.003-0-0.004 0-0.053 0.013-0.103 0.037-0.146l-0.001 0.002c0.024-0.045 0.058-0.084 0.101-0.115s0.094-0.058 0.153-0.075c0.060-0.017 0.125-0.026 0.196-0.026 0.097 0 0.181 0.018 0.253 0.052s0.128 0.083 0.168 0.143c0.040 0.061 0.060 0.13 0.060 0.208h-0.269c0-0.001 0-0.003 0-0.005 0-0.035-0.009-0.068-0.025-0.097l0.001 0.001c-0.016-0.030-0.041-0.054-0.071-0.069l-0.001-0c-0.033-0.016-0.071-0.025-0.111-0.025-0.003 0-0.007 0-0.010 0h0c-0.003-0-0.006-0-0.009-0-0.039 0-0.076 0.008-0.11 0.022l0.002-0.001c-0.029 0.012-0.053 0.032-0.070 0.056l-0 0.001c-0.015 0.022-0.023 0.049-0.023 0.077 0 0.001 0 0.001 0 0.002v-0c0 0.022 0.005 0.042 0.016 0.060 0.014 0.020 0.031 0.037 0.050 0.050l0.001 0c0.022 0.016 0.049 0.030 0.082 0.044s0.070 0.027 0.113 0.041c0.072 0.022 0.134 0.046 0.189 0.073s0.1 0.057 0.137 0.091c0.037 0.034 0.064 0.072 0.083 0.114s0.028 0.091 0.028 0.145c0 0.004 0 0.008 0 0.013 0 0.105-0.051 0.197-0.129 0.254l-0.001 0.001c-0.042 0.031-0.092 0.055-0.15 0.071s-0.123 0.025-0.195 0.025c-0.065 0-0.129-0.009-0.192-0.026-0.066-0.018-0.123-0.045-0.174-0.080l0.002 0.001c-0.051-0.035-0.092-0.079-0.122-0.131l-0.001-0.002c-0.031-0.054-0.046-0.118-0.046-0.192h0.271c0 0.041 0.006 0.075 0.019 0.104s0.030 0.050 0.053 0.068l0 0c0.024 0.017 0.051 0.030 0.082 0.038l0.002 0c0.032 0.008 0.068 0.012 0.106 0.012 0.003 0 0.006 0 0.010 0 0.038 0 0.074-0.007 0.107-0.021l-0.002 0.001c0.053-0.021 0.090-0.073 0.090-0.133 0-0.001 0-0.001 0-0.002v0z"></path>
</symbol>
<symbol id="icon-Logo-2" viewBox="0 0 32 32">
<path  d="M11.327 22.532c0.005 0 0.010 0.001 0.014 0.003s0.009 0.004 0.012 0.007l-0-0 0.068 0.064c-0.053 0.052-0.117 0.093-0.187 0.12l-0.004 0.001c-0.086 0.031-0.178 0.046-0.271 0.043-0.004 0-0.009 0-0.014 0-0.086 0-0.169-0.015-0.246-0.042l0.005 0.002c-0.074-0.026-0.138-0.065-0.192-0.115l0 0c-0.052-0.049-0.094-0.108-0.123-0.174l-0.001-0.003c-0.027-0.065-0.043-0.141-0.043-0.221 0-0.002 0-0.005 0-0.007v0c-0-0.002-0-0.005-0-0.008 0-0.080 0.017-0.156 0.048-0.224l-0.001 0.003c0.030-0.066 0.074-0.126 0.132-0.177 0.057-0.049 0.125-0.089 0.199-0.114l0.004-0.001c0.076-0.026 0.163-0.041 0.254-0.041 0.003 0 0.006 0 0.009 0h-0c0.083-0.002 0.166 0.011 0.244 0.037 0.067 0.025 0.129 0.060 0.183 0.102l-0.057 0.068c-0.004 0.005-0.009 0.009-0.014 0.012l-0 0c-0.006 0.003-0.013 0.005-0.020 0.005-0.001 0-0.002-0-0.003-0h0c-0.009-0.001-0.018-0.003-0.025-0.008l0 0-0.031-0.018-0.042-0.023c-0.039-0.019-0.084-0.033-0.131-0.041l-0.003-0c-0.028-0.005-0.060-0.007-0.093-0.007-0.003 0-0.006 0-0.009 0h0c-0.002-0-0.004-0-0.007-0-0.065 0-0.128 0.011-0.186 0.032l0.004-0.001c-0.057 0.020-0.106 0.049-0.148 0.086l0-0c-0.042 0.040-0.075 0.086-0.096 0.137-0.022 0.051-0.035 0.111-0.035 0.174 0 0.002 0 0.004 0 0.006v-0c-0 0.002-0 0.004-0 0.007 0 0.063 0.013 0.124 0.036 0.179l-0.001-0.003c0.044 0.104 0.128 0.183 0.233 0.219l0.003 0.001c0.055 0.020 0.115 0.030 0.175 0.029 0.035 0.001 0.070-0.002 0.104-0.006 0.086-0.009 0.163-0.043 0.225-0.094l-0.001 0.001c0.009-0.007 0.020-0.011 0.032-0.012h0zM13.289 22.211c0.001 0.077-0.014 0.154-0.046 0.226-0.030 0.069-0.074 0.128-0.127 0.175l-0.001 0c-0.057 0.050-0.125 0.089-0.201 0.115-0.077 0.026-0.166 0.041-0.258 0.041s-0.181-0.015-0.264-0.042l0.006 0.002c-0.077-0.027-0.144-0.066-0.201-0.116l0.001 0.001c-0.054-0.048-0.098-0.107-0.128-0.174l-0.001-0.003c-0.029-0.067-0.046-0.145-0.046-0.226s0.017-0.159 0.047-0.23l-0.001 0.004c0.029-0.066 0.073-0.126 0.129-0.178 0.057-0.048 0.125-0.086 0.2-0.111 0.166-0.055 0.35-0.055 0.516 0 0.075 0.026 0.144 0.065 0.2 0.115 0.107 0.096 0.174 0.234 0.174 0.388 0 0.005-0 0.009-0 0.014v-0.001zM13.111 22.211c0.002-0.062-0.009-0.123-0.032-0.182-0.041-0.105-0.126-0.186-0.232-0.221l-0.003-0.001c-0.056-0.019-0.121-0.030-0.188-0.030s-0.132 0.011-0.192 0.031l0.004-0.001c-0.056 0.019-0.104 0.049-0.144 0.086l0-0c-0.040 0.037-0.071 0.082-0.091 0.133l-0.001 0.002c-0.043 0.118-0.043 0.245 0 0.363 0.019 0.050 0.050 0.096 0.092 0.136 0.040 0.037 0.089 0.066 0.144 0.085 0.121 0.039 0.254 0.039 0.375 0 0.054-0.019 0.104-0.048 0.143-0.085 0.041-0.039 0.072-0.086 0.091-0.136 0.023-0.058 0.034-0.12 0.032-0.182zM14.628 22.401l0.018 0.041c0.007-0.014 0.013-0.028 0.020-0.041s0.014-0.027 0.022-0.040l0.434-0.674c0.009-0.012 0.016-0.019 0.025-0.022s0.019-0.004 0.029-0.004c0.002 0 0.005 0 0.007 0h0.128v1.096h-0.152v-0.84c-0-0.006-0.001-0.012-0.001-0.019s0-0.013 0.001-0.020l-0 0.001-0.437 0.683c-0.006 0.011-0.015 0.019-0.025 0.025l-0 0c-0.011 0.006-0.023 0.009-0.037 0.009-0 0-0 0-0.001 0h-0.025c-0 0-0.001 0-0.001 0-0.013 0-0.026-0.003-0.037-0.009l0 0c-0.011-0.006-0.019-0.014-0.025-0.024l-0-0-0.449-0.688v0.88h-0.147v-1.094h0.128c0.002-0 0.004-0 0.005-0 0.011 0 0.021 0.001 0.031 0.004l-0.001-0c0.010 0.004 0.019 0.011 0.024 0.021l0 0 0.443 0.675c0.009 0.012 0.016 0.026 0.022 0.039zM16.261 22.347v0.41h-0.17v-1.095h0.378c0.072-0.001 0.143 0.007 0.212 0.024 0.055 0.013 0.106 0.036 0.15 0.068 0.036 0.028 0.065 0.064 0.084 0.106l0.001 0.002c0.020 0.045 0.030 0.092 0.029 0.14 0 0.001 0 0.003 0 0.005 0 0.1-0.048 0.189-0.122 0.244l-0.001 0.001c-0.043 0.032-0.093 0.057-0.148 0.072l-0.003 0.001c-0.066 0.018-0.135 0.026-0.204 0.025l-0.206-0.003zM16.261 22.229h0.206c0.045 0 0.089-0.005 0.132-0.017 0.036-0.010 0.068-0.027 0.096-0.048l-0.001 0.001c0.048-0.038 0.078-0.097 0.078-0.162 0-0.001 0-0.002-0-0.003v0c0-0.003 0-0.007 0-0.011 0-0.028-0.006-0.055-0.018-0.079l0 0.001c-0.014-0.030-0.034-0.055-0.059-0.074l-0-0c-0.057-0.037-0.127-0.060-0.202-0.060-0.009 0-0.019 0-0.028 0.001l0.001-0h-0.206v0.451zM18.544 22.759h-0.134c-0.001 0-0.002 0-0.002 0-0.013 0-0.025-0.004-0.035-0.010l0 0c-0.009-0.006-0.017-0.015-0.022-0.025l-0-0-0.115-0.265h-0.58l-0.12 0.265c-0.005 0.010-0.012 0.018-0.021 0.024l-0 0c-0.010 0.007-0.023 0.011-0.036 0.011-0.001 0-0.001 0-0.002-0h-0.134l0.51-1.096h0.177l0.516 1.096zM17.704 22.352h0.479l-0.202-0.446c-0.014-0.028-0.027-0.063-0.037-0.098l-0.001-0.005-0.019 0.057c-0.006 0.018-0.013 0.033-0.018 0.046l-0.201 0.446zM19.279 21.667c0.010 0.005 0.018 0.011 0.025 0.020l0 0 0.743 0.827v-0.851h0.152v1.096h-0.085c-0.001 0-0.002 0-0.003 0-0.011 0-0.022-0.002-0.032-0.006l0.001 0c-0.011-0.005-0.020-0.012-0.027-0.021l-0-0-0.742-0.826c0 0.006 0.001 0.012 0.001 0.019s-0 0.013-0.001 0.020l0-0.001v0.815h-0.152v-1.096h0.090c0.010-0 0.021 0.001 0.031 0.005zM21.451 22.323v0.435h-0.17v-0.435l-0.47-0.66h0.152c0.001-0 0.003-0 0.004-0 0.012 0 0.023 0.003 0.033 0.009l-0-0c0.009 0.007 0.017 0.015 0.023 0.025l0.294 0.426c0.020 0.028 0.038 0.060 0.051 0.094l0.001 0.003 0.022-0.047c0.008-0.017 0.018-0.034 0.029-0.050l0.29-0.429c0.006-0.009 0.014-0.017 0.022-0.023l0-0c0.009-0.007 0.021-0.011 0.034-0.011 0.001 0 0.002 0 0.003 0h0.154l-0.471 0.663zM14.544 19.822c0.074 0.008 0.149 0.014 0.224 0.020 1.146-0.438 2.116-1.155 2.788-2.061s1.016-1.961 0.99-3.034l-1.263-1.079c0.257 1.142 0.137 2.322-0.347 3.41s-1.312 2.037-2.392 2.745z"></path>
<path  d="M14.093 19.772l0.034 0.006c1.154-0.705 2.034-1.69 2.526-2.827s0.573-2.374 0.233-3.551l-1.799-1.537c0.728 1.264 1.021 2.677 0.845 4.077s-0.814 2.729-1.838 3.832zM20.194 16.014c-0.306 1.179-1.048 2.241-2.117 3.031-0.291 0.218-0.621 0.423-0.967 0.599l-0.038 0.018c0.87-0.218 1.67-0.605 2.338-1.129s1.186-1.173 1.514-1.896l-0.729-0.623z"></path>
<path  d="M19.908 15.84l-1.039-0.887c-0.020 1.012-0.357 2.001-0.975 2.864s-1.496 1.569-2.542 2.044h0.005c0.233 0 0.466-0.012 0.697-0.035 0.977-0.341 1.841-0.883 2.513-1.579s1.133-1.522 1.34-2.406zM14.243 11.215l-1.239-1.060c-1.108 0.366-2.061 1.009-2.734 1.845s-1.035 1.827-1.039 2.841c0.004 1.121 0.446 2.209 1.255 3.092s1.94 1.509 3.213 1.781c1.137-1.183 1.802-2.645 1.9-4.174s-0.378-3.043-1.357-4.325zM22.771 15.677c-0.005-1.33-0.625-2.605-1.726-3.546s-2.593-1.471-4.15-1.475c-0.004 0-0.009 0-0.014 0-0.748 0-1.466 0.122-2.138 0.348l0.047-0.014 7.588 6.483c0.247-0.527 0.392-1.145 0.392-1.797v-0z"></path>
</symbol>
<symbol id="icon-Logo-1" viewBox="0 0 32 32">
<path  d="M15.421 9.211h-0.042c-0.065-0.004-0.129-0.006-0.194-0.007h-0.14c-0.122 0-0.247 0.003-0.37 0.009-0.004-0-0.009-0.001-0.014-0.001s-0.010 0-0.015 0.001l0.001-0c-1.188 0.069-2.291 0.366-3.288 0.848l0.052-0.023-0.133 0.064v6.813l0.311-0.106c0.273-0.094 0.564-0.178 0.866-0.257 0.744-0.199 1.601-0.319 2.484-0.331l0.007-0v0.895c-0.111 0.001-0.219 0.004-0.328 0.009h-0.026c-0.699 0.039-1.355 0.144-1.986 0.31l0.069-0.015c-0.867 0.221-1.627 0.525-2.333 0.915l0.050-0.025v-8.738c0.69-0.41 1.487-0.744 2.332-0.96l0.063-0.014c0.677-0.182 1.454-0.288 2.256-0.291h0.133c0.157 0.004 0.311 0.011 0.455 0.022 0.379 0.027 0.756 0.087 1.125 0.179v0.881c-0.314-0.077-0.686-0.135-1.067-0.163l-0.023-0.001-0.022-0.002c-0.076-0.006-0.152-0.013-0.223-0.013zM16.972 10.111c0.195 0.015 0.398 0.022 0.602 0.022 0.845-0.003 1.662-0.114 2.441-0.32l-0.067 0.015c0.867-0.221 1.626-0.526 2.332-0.916l-0.050 0.025v8.582c-0.69 0.41-1.488 0.744-2.332 0.96l-0.064 0.014c-0.677 0.181-1.454 0.287-2.256 0.29h-0.002c-0.016 0-0.036 0-0.055 0-0.588 0-1.16-0.074-1.705-0.212l0.048 0.010v-8.638c0.132 0.031 0.269 0.059 0.407 0.082 0.227 0.038 0.467 0.066 0.701 0.084zM21.339 10.178l-0.311 0.105c-0.286 0.096-0.575 0.182-0.866 0.259-0.775 0.208-1.666 0.328-2.585 0.332h-0.002c-0.203 0-0.39-0.006-0.57-0.017l-0.248-0.016v7.009l0.213 0.018c0.198 0.018 0.402 0.026 0.607 0.026 0.725-0.003 1.427-0.099 2.095-0.277l-0.058 0.013c0.611-0.155 1.141-0.351 1.643-0.595l-0.051 0.022 0.133-0.064v-6.815z"></path>
<path  d="M10.997 21.297c-0.084-0.087-0.201-0.14-0.33-0.14-0.006 0-0.011 0-0.017 0l0.001-0c-0.002-0-0.005-0-0.007-0-0.070 0-0.136 0.014-0.196 0.039l0.003-0.001c-0.118 0.047-0.21 0.14-0.255 0.256l-0.001 0.003c-0.025 0.062-0.037 0.127-0.036 0.193v1.167c-0.003 0.082 0.013 0.164 0.046 0.239 0.028 0.060 0.067 0.113 0.117 0.157 0.046 0.039 0.101 0.068 0.16 0.083 0.057 0.016 0.116 0.024 0.174 0.024 0.065 0.001 0.129-0.013 0.188-0.041 0.175-0.078 0.295-0.25 0.295-0.451v-0.13h-0.306v0.104c0 0.002 0 0.005 0 0.007 0 0.035-0.007 0.068-0.019 0.099l0.001-0.002c-0.010 0.026-0.025 0.048-0.044 0.066l-0 0c-0.035 0.027-0.079 0.044-0.128 0.045h-0c-0.005 0.001-0.012 0.001-0.018 0.001-0.051 0-0.097-0.025-0.125-0.063l-0-0c-0.026-0.041-0.041-0.091-0.041-0.145 0-0.004 0-0.008 0-0.012l-0 0.001v-1.089c-0.002-0.060 0.011-0.12 0.038-0.174 0.028-0.043 0.076-0.072 0.131-0.072 0.006 0 0.013 0 0.019 0.001l-0.001-0c0.002-0 0.004-0 0.006-0 0.053 0 0.101 0.026 0.13 0.066l0 0c0.032 0.041 0.051 0.093 0.051 0.15 0 0.002-0 0.005-0 0.007v-0 0.101h0.302v-0.119c0-0.002 0-0.003 0-0.005 0-0.072-0.014-0.14-0.039-0.203l0.001 0.004c-0.024-0.064-0.059-0.119-0.102-0.165l0 0zM12.81 21.284c-0.093-0.079-0.214-0.128-0.347-0.129h-0c-0.062 0-0.124 0.011-0.182 0.033-0.126 0.045-0.225 0.138-0.278 0.256l-0.001 0.003c-0.031 0.071-0.046 0.148-0.045 0.226v1.119c-0.002 0.079 0.013 0.157 0.045 0.229 0.028 0.060 0.068 0.114 0.118 0.157 0.047 0.043 0.102 0.077 0.161 0.098 0.058 0.022 0.12 0.033 0.182 0.033 0.133-0 0.255-0.050 0.348-0.132l-0.001 0c0.049-0.044 0.088-0.097 0.115-0.157 0.031-0.072 0.046-0.15 0.045-0.229v-1.12c0-0.003 0-0.006 0-0.010 0-0.078-0.016-0.152-0.046-0.22l0.001 0.003c-0.028-0.064-0.067-0.118-0.115-0.163l-0-0zM12.668 22.793c0 0.005 0.001 0.011 0.001 0.017 0 0.057-0.024 0.108-0.061 0.145l-0 0c-0.039 0.032-0.089 0.052-0.144 0.052s-0.105-0.020-0.144-0.053l0 0c-0.038-0.036-0.061-0.088-0.061-0.144 0-0.006 0-0.013 0.001-0.019l-0 0.001v-1.12c-0-0.005-0.001-0.011-0.001-0.017 0-0.057 0.024-0.108 0.061-0.145l0-0c0.039-0.033 0.089-0.052 0.144-0.052s0.105 0.020 0.144 0.053l-0-0c0.038 0.037 0.061 0.088 0.061 0.144 0 0.006-0 0.012-0.001 0.018l0-0.001v1.12zM15.191 23.294v-2.12h-0.293l-0.386 1.122h-0.005l-0.389-1.122h-0.29v2.12h0.303v-1.289h0.006l0.296 0.911h0.151l0.299-0.911h0.006v1.289h0.303zM16.912 21.323c-0.046-0.052-0.106-0.092-0.171-0.116-0.062-0.021-0.134-0.033-0.208-0.033-0.004 0-0.008 0-0.012 0h-0.449v2.12h0.302v-0.828h0.155c0.094 0.004 0.188-0.016 0.273-0.058 0.069-0.039 0.125-0.094 0.165-0.16l0.001-0.002c0.035-0.056 0.058-0.119 0.069-0.185 0.010-0.067 0.016-0.144 0.016-0.222 0-0.007-0-0.013-0-0.020v0.001c0.003-0.102-0.007-0.204-0.030-0.303-0.021-0.076-0.060-0.142-0.111-0.195l0 0zM16.756 21.969c-0.001 0.041-0.012 0.078-0.029 0.112l0.001-0.002c-0.017 0.033-0.044 0.058-0.077 0.074l-0.001 0c-0.037 0.017-0.081 0.027-0.127 0.027-0.006 0-0.011-0-0.016-0l0.001 0h-0.138v-0.721h0.156c0.004-0 0.009-0 0.015-0 0.044 0 0.086 0.010 0.124 0.028l-0.002-0.001c0.031 0.018 0.056 0.045 0.070 0.077l0 0.001c0.017 0.037 0.026 0.078 0.026 0.118v0.141c0 0.049 0.003 0.1 0 0.146h-0.003zM18.342 21.174h-0.248l-0.467 2.12h0.302l0.089-0.455h0.412l0.089 0.455h0.302l-0.479-2.12zM18.064 22.549l0.149-0.768h0.006l0.148 0.768h-0.302zM20.294 22.451h-0.006l-0.456-1.277h-0.291v2.12h0.302v-1.275h0.006l0.462 1.275h0.284v-2.12h-0.302v1.277zM22.14 21.174l-0.243 0.843h-0.006l-0.243-0.843h-0.319l0.415 1.224v0.896h0.302v-0.896l0.415-1.224h-0.32zM10.155 23.892h0.146v0.408h0.099v-0.409h0.145v-0.084h-0.389v0.084zM11.378 23.808l-0.191 0.492h0.105l0.041-0.112h0.196l0.042 0.112h0.108l-0.196-0.492h-0.105zM11.363 24.106l0.067-0.182 0.067 0.182h-0.134zM12.588 24.119h0.114v0.063c-0.032 0.026-0.072 0.041-0.117 0.042h-0c-0.002 0-0.005 0-0.007 0-0.039 0-0.075-0.018-0.097-0.047l-0-0c-0.023-0.033-0.037-0.073-0.037-0.117 0-0.004 0-0.008 0-0.012l-0 0.001c0-0.11 0.047-0.164 0.142-0.164 0.003-0 0.007-0.001 0.011-0.001 0.049 0 0.089 0.033 0.101 0.078l0 0.001 0.097-0.019c-0.021-0.096-0.090-0.145-0.209-0.145-0.002-0-0.004-0-0.007-0-0.064 0-0.122 0.024-0.166 0.064l0-0c-0.044 0.044-0.071 0.104-0.071 0.171 0 0.006 0 0.013 0.001 0.019l-0-0.001c-0 0.003-0 0.007-0 0.012 0 0.066 0.024 0.127 0.064 0.174l-0-0c0.043 0.045 0.104 0.073 0.172 0.073 0.005 0 0.011-0 0.016-0.001l-0.001 0c0.002 0 0.005 0 0.008 0 0.078 0 0.148-0.030 0.201-0.079l-0 0v-0.194h-0.213v0.083zM13.824 23.808h-0.1v0.492h0.345v-0.084h-0.245v-0.409zM14.868 23.808h-0.1v0.492h0.1v-0.492zM15.889 24.137l-0.202-0.329h-0.096v0.492h0.092v-0.322l0.198 0.322h0.099v-0.492h-0.091v0.329zM16.813 24.084h0.245v-0.084h-0.245v-0.108h0.264v-0.084h-0.363v0.492h0.374v-0.084h-0.274v-0.133zM19.051 24.002h-0.194v-0.194h-0.098v0.492h0.098v-0.215h0.194v0.215h0.099v-0.492h-0.099v0.194zM19.98 24.084h0.246v-0.084h-0.246v-0.108h0.265v-0.084h-0.363v0.492h0.373v-0.084h-0.274v-0.133zM21.24 24.084c0.086-0.014 0.129-0.059 0.129-0.137 0.001-0.004 0.001-0.009 0.001-0.014 0-0.039-0.019-0.074-0.049-0.096l-0-0c-0.036-0.019-0.079-0.030-0.125-0.030-0.007 0-0.013 0-0.020 0.001l0.001-0h-0.209v0.492h0.099v-0.206h0.019c0.002-0 0.005-0 0.008-0 0.019 0 0.038 0.004 0.054 0.012l-0.001-0c0.014 0.009 0.026 0.021 0.035 0.036l0.107 0.156h0.118l-0.060-0.096c-0.027-0.048-0.064-0.088-0.108-0.117l-0.001-0.001zM21.14 24.016h-0.073v-0.123h0.078c0.006-0.001 0.013-0.001 0.021-0.001 0.028 0 0.056 0.005 0.081 0.013l-0.002-0.001c0.013 0.012 0.021 0.029 0.021 0.048 0 0.021-0.010 0.040-0.026 0.052l-0 0c-0.025 0.008-0.053 0.012-0.082 0.012-0.006 0-0.013-0-0.019-0.001l0.001 0zM22.189 24.084h0.245v-0.084h-0.245v-0.108h0.265v-0.084h-0.364v0.492h0.374v-0.084h-0.274v-0.133z"></path>
</symbol>
<symbol id="icon-linkedin-1" viewBox="0 0 32 32">
<path  d="M32.003 32.011h0.008v-11.744c0-5.742-1.236-10.168-7.951-10.168-3.227 0-5.394 1.773-6.278 3.451h-0.094v-2.913h-6.364v21.374h6.63v-10.584c0-2.785 0.528-5.478 3.977-5.478 3.401 0 3.451 3.179 3.451 5.658v10.404h6.622zM0.528 10.64h6.636v21.372h-6.636v-21.372zM3.843 0c-2.121 0-3.841 1.721-3.841 3.841s1.721 3.881 3.841 3.881c2.123 0 3.845-1.761 3.845-3.881s-1.727-3.841-3.847-3.841z"></path>
</symbol>
<symbol id="icon-linkedin-1-1" viewBox="0 0 32 32">
<path  d="M32.003 32.011h0.008v-11.742c0-5.743-1.236-10.168-7.951-10.168-3.228 0-5.394 1.771-6.278 3.451h-0.093v-2.914h-6.366v21.373h6.629v-10.582c0-2.786 0.528-5.481 3.979-5.481 3.4 0 3.451 3.18 3.451 5.659v10.404h6.622zM0.528 10.64h6.637v21.372h-6.637v-21.372zM3.844 0c-2.123 0.001-3.843 1.721-3.844 3.844v0c0 2.122 1.722 3.88 3.844 3.88s3.844-1.758 3.844-3.88c-0.002-2.122-1.722-3.842-3.844-3.844h-0z"></path>
</symbol>
<symbol id="icon-instagram-1" viewBox="0 0 32 32">
<path  d="M31.979 9.411c-0.074-1.701-0.35-2.871-0.744-3.883-0.424-1.112-1.054-2.060-1.849-2.84l-0.001-0.001c-0.78-0.791-1.725-1.418-2.779-1.824l-0.054-0.018c-1.020-0.394-2.181-0.67-3.881-0.744-1.717-0.080-2.263-0.1-6.604-0.1-4.348 0-4.892 0.020-6.598 0.094-1.701 0.074-2.869 0.35-3.881 0.744-1.112 0.424-2.060 1.054-2.84 1.849l-0.001 0.001c-0.792 0.78-1.419 1.725-1.826 2.779l-0.018 0.054c-0.394 1.020-0.668 2.181-0.744 3.881-0.080 1.715-0.1 2.261-0.1 6.604 0 4.348 0.020 4.892 0.094 6.598 0.074 1.701 0.35 2.871 0.744 3.883 0.406 1.076 1.038 2.039 1.851 2.839 0.8 0.812 1.771 1.445 2.833 1.845 1.020 0.394 2.181 0.67 3.883 0.744 1.707 0.076 2.251 0.094 6.598 0.094 4.346 0 4.89-0.020 6.596-0.094 1.701-0.074 2.871-0.35 3.883-0.744 2.158-0.85 3.834-2.526 4.664-4.628l0.019-0.055c0.394-1.020 0.67-2.181 0.744-3.883 0.076-1.707 0.094-2.251 0.094-6.598 0-4.346-0.006-4.89-0.080-6.596zM29.098 22.48c-0.070 1.565-0.332 2.409-0.552 2.971-0.551 1.401-1.639 2.489-3.003 3.029l-0.036 0.013c-0.562 0.218-1.413 0.48-2.969 0.548-1.689 0.076-2.195 0.094-6.466 0.094s-4.784-0.020-6.466-0.094c-1.565-0.068-2.409-0.33-2.971-0.55-0.721-0.269-1.336-0.676-1.838-1.193l-0.001-0.001c-0.517-0.504-0.924-1.118-1.183-1.804l-0.011-0.034c-0.22-0.562-0.48-1.413-0.55-2.969-0.074-1.689-0.094-2.197-0.094-6.466 0-4.272 0.020-4.784 0.094-6.466 0.070-1.565 0.332-2.409 0.55-2.971 0.256-0.694 0.664-1.324 1.2-1.839 0.52-0.532 1.144-0.938 1.841-1.194 0.56-0.22 1.412-0.48 2.969-0.55 1.689-0.074 2.195-0.094 6.466-0.094 4.278 0 4.782 0.020 6.466 0.094 1.563 0.070 2.407 0.332 2.969 0.55 0.694 0.256 1.326 0.662 1.841 1.194 0.53 0.52 0.936 1.144 1.192 1.841 0.22 0.56 0.482 1.41 0.55 2.969 0.076 1.689 0.094 2.195 0.094 6.466s-0.018 4.772-0.092 6.458z"></path>
<path  d="M16.066 7.785c-4.464 0.102-8.044 3.744-8.044 8.223s3.58 8.121 8.034 8.223l0.009 0c4.464-0.102 8.044-3.744 8.044-8.223s-3.58-8.121-8.034-8.223l-0.009-0zM16.066 21.344c-2.947 0-5.336-2.389-5.336-5.336s2.389-5.336 5.336-5.336v0c2.947 0 5.336 2.389 5.336 5.336s-2.389 5.336-5.336 5.336v0zM26.533 7.461c0 1.061-0.86 1.921-1.921 1.921s-1.921-0.86-1.921-1.921v0c0-1.061 0.86-1.921 1.921-1.921s1.921 0.86 1.921 1.921v0z"></path>
</symbol>
<symbol id="icon-instagram-2" viewBox="0 0 32 32">
<path  d="M31.981 9.411c-0.076-1.701-0.351-2.87-0.744-3.884-0.424-1.111-1.054-2.058-1.85-2.837l-0.001-0.001c-0.78-0.792-1.725-1.419-2.779-1.826l-0.054-0.018c-1.019-0.393-2.183-0.671-3.884-0.744-1.713-0.080-2.257-0.1-6.601-0.1-4.35 0-4.894 0.019-6.601 0.093-1.699 0.076-2.869 0.351-3.881 0.744-1.112 0.424-2.059 1.054-2.838 1.85l-0.001 0.001c-0.792 0.78-1.419 1.725-1.826 2.779l-0.018 0.054c-0.393 1.019-0.67 2.182-0.744 3.881-0.080 1.715-0.1 2.259-0.1 6.605 0 4.347 0.019 4.891 0.093 6.598 0.076 1.701 0.351 2.869 0.746 3.883 0.426 1.111 1.056 2.058 1.849 2.839l0.001 0.001c0.8 0.814 1.77 1.445 2.833 1.845 1.019 0.393 2.182 0.668 3.884 0.744 1.707 0.075 2.25 0.093 6.597 0.093 4.346 0 4.89-0.019 6.597-0.093 1.701-0.076 2.87-0.351 3.884-0.744 2.157-0.851 3.833-2.527 4.664-4.629l0.019-0.055c0.395-1.019 0.67-2.182 0.744-3.883 0.075-1.707 0.093-2.251 0.093-6.598 0-4.346-0.005-4.89-0.080-6.597zM29.097 22.481c-0.068 1.563-0.331 2.408-0.55 2.97-0.552 1.4-1.639 2.487-3.004 3.026l-0.036 0.013c-0.563 0.22-1.414 0.482-2.97 0.551-1.689 0.075-2.194 0.093-6.466 0.093-4.271 0-4.783-0.019-6.466-0.093-1.563-0.069-2.408-0.331-2.97-0.551-0.721-0.269-1.335-0.676-1.837-1.193l-0.001-0.001c-0.517-0.504-0.924-1.118-1.184-1.804l-0.011-0.034c-0.219-0.563-0.48-1.414-0.55-2.97-0.075-1.689-0.093-2.195-0.093-6.466 0-4.272 0.019-4.784 0.093-6.466 0.069-1.563 0.331-2.408 0.55-2.97 0.257-0.694 0.664-1.326 1.2-1.839 0.504-0.517 1.119-0.924 1.806-1.182l0.034-0.011c0.562-0.219 1.412-0.48 2.969-0.551 1.689-0.075 2.195-0.093 6.466-0.093 4.278 0 4.783 0.019 6.466 0.093 1.563 0.069 2.408 0.332 2.97 0.551 0.694 0.256 1.326 0.663 1.838 1.194 0.532 0.52 0.938 1.144 1.195 1.839 0.219 0.563 0.48 1.414 0.55 2.97 0.075 1.689 0.093 2.194 0.093 6.466 0 4.271-0.019 4.771-0.093 6.46z"></path>
<path  d="M16.064 7.785c-4.541 0.002-8.221 3.682-8.223 8.223v0c0.001 4.541 3.682 8.223 8.223 8.224h0c4.542-0.001 8.223-3.682 8.224-8.224v-0c-0.002-4.541-3.683-8.222-8.224-8.223h-0zM16.064 21.344c-2.946-0.001-5.334-2.389-5.334-5.335s2.389-5.335 5.335-5.335c0 0 0.001 0 0.001 0h-0c2.946 0.001 5.334 2.389 5.334 5.335s-2.389 5.335-5.335 5.335c-0 0-0.001 0-0.001 0h0zM26.533 7.46c0 0.015 0.001 0.033 0.001 0.051 0 1.061-0.86 1.921-1.921 1.921s-1.921-0.86-1.921-1.921c0-0.018 0-0.036 0.001-0.053l-0 0.003c0.028-1.039 0.877-1.87 1.92-1.87s1.892 0.831 1.92 1.867l0 0.003z"></path>
</symbol>
<symbol id="icon-facebook-1" viewBox="0 0 32 32">
<path  d="M21.338 5.316h2.921v-5.090c-1.238-0.144-2.673-0.226-4.127-0.226-0.046 0-0.092 0-0.138 0l0.007-0c-4.213 0-7.097 2.651-7.097 7.523v4.482h-4.652v5.69h4.65v14.317h5.7v-14.315h4.462l0.708-5.692h-5.172v-3.921c0.002-1.645 0.444-2.769 2.737-2.769z"></path>
</symbol>
<symbol id="icon-facebook-2" viewBox="0 0 32 32">
<path  d="M21.337 5.315h2.922v-5.090c-0.504-0.069-2.238-0.225-4.258-0.225-4.213 0-7.1 2.65-7.1 7.521v4.483h-4.65v5.69h4.65v14.317h5.701v-14.316h4.462l0.708-5.69h-5.171v-3.92c0.001-1.645 0.444-2.77 2.736-2.77z"></path>
</symbol>
<symbol id="icon-diagram" viewBox="0 0 32 32">
<path  d="M14.928 14.967h1.066v4.798h-1.066v-4.798zM19.193 17.099h1.066v2.665h-1.066v-2.665zM10.662 18.698h1.066v1.066h-1.066v-1.066zM7.463 18.165h1.067v1.599h-1.067v-1.599z"></path>
<path  d="M1.599 28.295h25.59c0 0 0 0 0 0 0.883 0 1.599-0.716 1.599-1.599v0-2.133c0-0.883-0.716-1.599-1.599-1.599-0 0-0 0-0.001 0h-0.533v-13.295l3.028-2.868c0.207 0.105 0.452 0.166 0.711 0.166 0.888 0 1.608-0.72 1.608-1.608s-0.72-1.608-1.608-1.608c-0.888 0-1.608 0.72-1.608 1.608 0 0.247 0.055 0.48 0.155 0.689l-0.004-0.010-2.282 2.163v-1.23c0-0.883-0.716-1.599-1.599-1.599v0h-21.325c-0 0-0 0-0.001 0-0.883 0-1.599 0.716-1.599 1.599 0 0 0 0 0 0.001v-0 15.993h-0.533c-0.883 0-1.599 0.716-1.599 1.599 0 0 0 0 0 0.001v-0 2.133c0 0.883 0.716 1.599 1.599 1.599v0zM30.388 4.837c0.295 0 0.533 0.239 0.533 0.533s-0.239 0.533-0.533 0.533v0c-0.295 0-0.533-0.239-0.533-0.533s0.239-0.533 0.533-0.533v0zM3.199 6.97c0-0.295 0.239-0.534 0.533-0.534h21.325c0.295 0 0.533 0.239 0.533 0.534v2.239l-1.066 1.013v-2.186c0-0.295-0.239-0.533-0.533-0.533h-19.193c-0.295 0-0.533 0.239-0.533 0.533v13.328c0 0.295 0.239 0.534 0.533 0.534h19.193c0.295 0 0.533-0.239 0.533-0.534v-9.675l1.066-1.010v12.285h-22.391v-15.993zM7.997 13.9c-0.001 0-0.003 0-0.005 0-0.883 0-1.599 0.716-1.599 1.599s0.716 1.599 1.599 1.599c0.432 0 0.824-0.171 1.112-0.45l-0 0 1.853 0.93c0.215 0.108 0.477 0.057 0.637-0.123l3.939-4.432 3.873 2.902c0.208 0.156 0.498 0.139 0.686-0.040l3.365-3.188v8.132h-18.125v-12.262h18.126v2.66l-3.773 3.572-3.906-2.928c-0.088-0.066-0.199-0.106-0.319-0.106-0.158 0-0.3 0.069-0.398 0.178l-0 0.001-3.994 4.493-1.493-0.747c0.011-0.064 0.018-0.129 0.021-0.194-0-0.883-0.716-1.599-1.599-1.599h-0zM8.53 15.5c0 0.295-0.239 0.533-0.533 0.533s-0.533-0.239-0.533-0.533v0c0-0.295 0.239-0.533 0.533-0.533s0.533 0.239 0.533 0.533v0zM11.729 24.030h5.331v0.533c0 0.295-0.239 0.533-0.533 0.533h-4.265c-0.294 0-0.533-0.239-0.533-0.533v0-0.533zM1.066 24.563c0-0.295 0.239-0.533 0.533-0.533h9.063v0.533c0 0 0 0 0 0 0 0.883 0.716 1.599 1.599 1.599h4.266c0.883 0 1.599-0.716 1.599-1.599 0-0 0-0 0-0.001v0-0.533h9.062c0.295 0 0.534 0.239 0.534 0.533v2.133c0 0.294-0.239 0.533-0.534 0.533h-25.589c-0.294 0-0.533-0.239-0.533-0.533v0-2.133z"></path>
</symbol>
<symbol id="icon-close-black" viewBox="0 0 32 32">
<path d="M32.011 3.225l-3.225-3.225-12.781 12.781-12.781-12.781-3.225 3.225 12.781 12.781-12.781 12.781 3.225 3.225 12.781-12.781 12.781 12.781 3.225-3.225-12.781-12.781 12.781-12.781z"></path>
</symbol>
<symbol id="icon-clock" viewBox="0 0 32 32">
<path  d="M31.301 15.303c-0.002-8.453-6.856-15.305-15.31-15.303s-15.305 6.856-15.303 15.31c0.002 6.789 4.423 12.545 10.543 14.547l0.108 0.031c0.060 0.019 0.124 0.029 0.187 0.029 0.121 0 0.239-0.032 0.343-0.093 0.135-0.080 0.236-0.207 0.284-0.357l3.865-12.252c1.054-0.004 1.906-0.859 1.906-1.913 0-1.057-0.857-1.913-1.913-1.913-0.303 0-0.59 0.070-0.845 0.196l0.011-0.005-5.107-5.107c-0.115-0.115-0.275-0.187-0.451-0.187-0.352 0-0.638 0.286-0.638 0.638 0 0.176 0.071 0.336 0.187 0.451v0l5.104 5.11c-0.121 0.241-0.191 0.525-0.191 0.826 0 0.602 0.283 1.137 0.723 1.48l0.004 0.003-3.683 11.675c-7.279-2.681-11.006-10.755-8.325-18.034 2.681-7.278 10.756-11.006 18.034-8.325s11.005 10.756 8.325 18.034c-1.345 3.582-4.004 6.407-7.375 7.939l-0.088 0.036-0.398-1.875c-0.063-0.291-0.318-0.505-0.624-0.505-0.163 0-0.312 0.061-0.425 0.162l0.001-0.001-3.837 3.426c-0.132 0.117-0.214 0.287-0.214 0.477 0 0.283 0.185 0.524 0.441 0.607l0.005 0.001 4.899 1.564c0.058 0.020 0.126 0.031 0.196 0.031 0.352 0 0.638-0.285 0.638-0.638 0-0.047-0.005-0.093-0.015-0.137l0.001 0.004-0.391-1.839c5.528-2.375 9.33-7.773 9.33-14.059 0-0.011 0-0.023-0-0.034v0.002zM15.994 14.665c0.352 0 0.638 0.286 0.638 0.638s-0.286 0.638-0.638 0.638v0c-0.352 0-0.638-0.286-0.638-0.638s0.286-0.638 0.638-0.638v0zM18.095 29.531l2.184-1.948 0.603 2.84-2.787-0.892z"></path>
<path  d="M15.357 3.185v1.275c0 0.352 0.285 0.638 0.638 0.638s0.638-0.285 0.638-0.638v-1.275c-0.014-0.341-0.294-0.613-0.638-0.613s-0.624 0.271-0.638 0.612l-0 0.001zM3.877 14.665c-0.352 0-0.638 0.285-0.638 0.638s0.285 0.638 0.638 0.638h1.275c0.352 0 0.638-0.285 0.638-0.638s-0.285-0.638-0.638-0.638h-1.275zM28.112 15.941c0.352 0 0.638-0.285 0.638-0.638s-0.285-0.638-0.638-0.638h-1.275c-0.341 0.014-0.613 0.294-0.613 0.638s0.271 0.624 0.612 0.638l0.001 0h1.275z"></path>
</symbol>
<symbol id="icon-astronaut" viewBox="0 0 32 32">
<path  d="M31.978 4.525c-0.064-0.191-0.227-0.332-0.427-0.362l-0.003-0-1.911-0.278-0.855-1.731c-0.179-0.365-0.777-0.365-0.956 0l-0.855 1.731-1.91 0.278c-0.26 0.039-0.457 0.26-0.457 0.528 0 0.149 0.061 0.285 0.161 0.382l1.383 1.348-0.327 1.903c-0.034 0.2 0.048 0.402 0.212 0.522 0.166 0.121 0.383 0.136 0.562 0.040l1.709-0.899 1.709 0.899c0.072 0.038 0.157 0.061 0.247 0.061 0.295 0 0.534-0.239 0.534-0.534 0-0.031-0.003-0.062-0.008-0.092l0 0.003-0.326-1.903 1.383-1.348c0.099-0.097 0.161-0.233 0.161-0.383 0-0.059-0.009-0.115-0.027-0.168l0.001 0.004zM29.515 5.852c-0.125 0.122-0.183 0.299-0.153 0.472l0.191 1.114-1.001-0.526c-0.072-0.039-0.158-0.062-0.249-0.062s-0.177 0.023-0.251 0.063l0.003-0.001-1.001 0.526 0.191-1.114c0.005-0.027 0.008-0.058 0.008-0.090 0-0.15-0.061-0.285-0.161-0.382l-0.81-0.79 1.119-0.163c0.174-0.025 0.324-0.135 0.402-0.292l0.5-1.013 0.501 1.013c0.078 0.158 0.228 0.267 0.402 0.292l1.119 0.163-0.809 0.79zM26.137 20.525h-1.067v1.067h1.067v-1.067zM26.137 22.659h-1.067v1.067h1.067v-1.068z"></path>
<path  d="M27.204 21.592h-1.067v1.067h1.067v-1.067zM25.070 21.592h-1.067v1.067h1.067v-1.067zM22.403 26.393h-1.067v1.067h1.067v-1.067zM22.403 28.526h-1.067v1.067h1.067v-1.067zM23.47 27.459h-1.067v1.067h1.067v-1.068z"></path>
<path  d="M21.336 27.459h-1.067v1.067h1.067v-1.068zM16.002 24.259h-1.067v1.067h1.067v-1.068zM16.002 26.393h-1.067v1.067h1.067v-1.067zM17.069 25.326h-1.067v1.067h1.067v-1.067zM14.935 25.326h-1.067v1.067h1.067v-1.067zM5.867 6.123h-1.067v1.067h1.067v-1.067zM5.867 8.256h-1.067v1.067h1.067v-1.067zM6.934 7.189h-1.067v1.067h1.067v-1.067zM4.801 7.189h-1.067v1.067h1.067v-1.067z"></path>
<path  d="M24.718 14.161c-0.28-0.377-0.699-0.637-1.179-0.704l-0.009-0.001c-0.076-0.012-0.164-0.018-0.254-0.018-0.411 0-0.789 0.14-1.090 0.374l0.004-0.003-1.252 0.96-1.898 1.418-1.358-0.541c2.421-1.086 4.114-3.508 4.114-6.321 0-3.824-3.123-6.934-6.962-6.934s-6.962 3.11-6.962 6.934c0 1.386 0.414 2.674 1.12 3.759l-2.769-0.024c-0.008 0-0.015 0.005-0.024 0.005-0.053 0.002-0.104 0.012-0.155 0.030-0.013 0.005-0.026 0.008-0.038 0.014-0.006 0.002-0.013 0.003-0.019 0.007l-3.234 1.597-1.894 0.911c-0.024 0.011-0.045 0.023-0.064 0.036l0.001-0.001c-0.482 0.324-0.794 0.866-0.794 1.482 0 0.297 0.073 0.576 0.201 0.822l-0.005-0.010c0.22 0.429 0.595 0.745 1.056 0.89 0.161 0.053 0.345 0.083 0.537 0.083 0.308 0 0.598-0.078 0.851-0.216l-0.009 0.005 1.388-0.738 2.264-1.17 1.357-0.008-5.443 5.416c0 0.001-0.001 0.001-0.002 0.002l-1.339 1.333c-0.303 0.299-0.49 0.714-0.49 1.173 0 0.002 0 0.003 0 0.005v-0c0 0.445 0.174 0.864 0.49 1.179 0.325 0.324 0.752 0.485 1.179 0.485s0.855-0.162 1.18-0.485l1.315-1.309 1.741-1.3 0.901 0.897-3.102 3.089c-0.303 0.299-0.49 0.714-0.49 1.173 0 0.002 0 0.003 0 0.005v-0c0 0.445 0.174 0.864 0.49 1.179 0.325 0.323 0.753 0.485 1.18 0.485s0.855-0.162 1.18-0.485l3.482-3.467c0-0.001 0-0.002 0.001-0.002l1.010-1-0.004-0.003c0.007-0.006 0.015-0.009 0.022-0.015l5.167-5.659 3.471 0.494c0.020 0.003 0.044 0.004 0.068 0.004 0.070 0 0.137-0.014 0.198-0.039l-0.004 0.001c0.017-0.006 0.033-0.015 0.050-0.023 0.019-0.009 0.039-0.015 0.057-0.027l3.214-2.134c0.012-0.008 0.018-0.020 0.029-0.029 0.012-0.010 0.029-0.014 0.040-0.025l1.272-1.192c0.347-0.326 0.564-0.787 0.564-1.299 0-0.4-0.132-0.77-0.355-1.067l0.003 0.005zM2.13 17.772c-0.173 0.093-0.37 0.111-0.558 0.052-0.295-0.093-0.505-0.364-0.505-0.683 0-0.236 0.114-0.445 0.29-0.575l0.002-0.001 1.314-0.632 0.316 0.925 0.133 0.388-0.993 0.528zM5.628 15.945l-1.549 0.8-0.255-0.747-0.184-0.537 2.027-1-0.040 1.484zM20.73 9.323c0 0.919-0.219 1.785-0.599 2.56l-4.182-1.899c-0.043-0.575-0.342-1.073-0.782-1.384l-0.006-0.004 1.464-4.861c2.378 0.756 4.105 2.974 4.105 5.588zM8.939 9.323c0-3.235 2.645-5.868 5.895-5.868 0.253 0 0.5 0.022 0.745 0.053l-1.432 4.754c-0.019 0-0.037-0.005-0.057-0.005-0 0-0 0-0.001 0-1.032 0-1.869 0.835-1.872 1.866v0c0.003 1.032 0.84 1.867 1.872 1.867 0 0 0 0 0.001 0h-0c0.695 0 1.295-0.383 1.618-0.945l3.863 1.755c-1.075 1.447-2.795 2.39-4.737 2.39-3.25 0-5.895-2.633-5.895-5.868zM14.896 10.123c0 0.441-0.362 0.8-0.806 0.8-0.001 0-0.001 0-0.002 0-0.443 0-0.802-0.358-0.804-0.8v-0c0-0.441 0.362-0.8 0.806-0.8s0.806 0.359 0.806 0.8zM2.465 25.149c-0.11 0.108-0.261 0.175-0.428 0.175s-0.317-0.067-0.427-0.175l0 0c-0.109-0.108-0.176-0.257-0.176-0.422s0.068-0.315 0.176-0.422l0-0 0.962-0.959 0.851 0.848-0.959 0.955zM5.679 28.883c-0.11 0.109-0.261 0.176-0.428 0.176s-0.317-0.067-0.427-0.175l0 0c-0.109-0.108-0.176-0.257-0.176-0.422s0.067-0.315 0.176-0.422l0-0 0.963-0.959 0.852 0.848-0.96 0.955zM9.162 25.414l-0.002 0.001-1.765 1.76-0.852-0.848 1.764-1.756s0.001 0 0.002-0.001c0.040-0.040 0.065-0.088 0.090-0.135 0.007-0.014 0.020-0.026 0.026-0.040 0.017-0.041 0.019-0.085 0.025-0.129 0.004-0.024 0.014-0.047 0.014-0.073 0-0.035-0.012-0.070-0.020-0.105-0.007-0.032-0.007-0.065-0.018-0.096-0.020-0.050-0.055-0.095-0.091-0.138-0.010-0.012-0.014-0.027-0.025-0.038h-0.001l-0.001-0.002-1.607-1.6c-0.017-0.017-0.039-0.024-0.058-0.038-0.025-0.021-0.054-0.040-0.084-0.056l-0.003-0.001c-0.027-0.013-0.058-0.024-0.090-0.032l-0.003-0.001c-0.030-0.009-0.065-0.017-0.101-0.020l-0.002-0c-0.006-0-0.013-0-0.020-0-0.026 0-0.052 0.002-0.077 0.006l0.003-0c-0.039 0.004-0.074 0.011-0.108 0.021l0.004-0.001c-0.036 0.013-0.067 0.028-0.096 0.046l0.002-0.001c-0.020 0.011-0.043 0.015-0.061 0.029l-1.774 1.324-0.901-0.897 2.399-2.387 4.361 4.29-0.927 0.919zM15.981 18.396c-0.015-0.002-0.030 0.004-0.045 0.003-0.008-0-0.017-0.001-0.026-0.001-0.031 0-0.062 0.003-0.092 0.008l0.003-0c-0.070 0.011-0.132 0.035-0.187 0.069l0.002-0.001c-0.030 0.018-0.057 0.038-0.083 0.061-0.013 0.011-0.028 0.017-0.040 0.029l-4.699 5.147-4.329-4.258 2.833-2.818c0.096-0.097 0.156-0.23 0.156-0.377 0-0.295-0.239-0.534-0.534-0.534-0 0-0.001 0-0.001 0h0l-2.219 0.013 0.027-1.608 3.104 0.027c1.264 1.297 3.027 2.101 4.979 2.101 0.001 0 0.002 0 0.003 0h-0c0.438 0 0.864-0.045 1.28-0.123 0.040 0.032 0.079 0.064 0.13 0.085l2.409 0.96 0.153 0.758 0.179 0.885-3.003-0.427zM20.023 18.575l-0.314-1.558 1.447-1.080 0.947 1.257-2.080 1.382zM23.777 15.744l-0.838 0.785-0.931-1.237 0.832-0.637c0.155-0.12 0.351-0.168 0.543-0.143 0.194 0.027 0.364 0.128 0.48 0.284 0.217 0.292 0.18 0.699-0.085 0.948z"></path>
<path  d="M13.604 18.546l-2.143-2.134c-0.096-0.096-0.229-0.155-0.376-0.155s-0.28 0.059-0.376 0.155l-2.143 2.134c-0.097 0.097-0.156 0.231-0.156 0.378s0.060 0.281 0.156 0.378l-0-0 2.143 2.133c0.096 0.096 0.229 0.155 0.376 0.155s0.28-0.059 0.376-0.155l2.143-2.133c0.097-0.097 0.157-0.23 0.157-0.378s-0.060-0.282-0.157-0.378l-0-0zM11.084 20.306l-1.387-1.381 1.387-1.381 1.388 1.381-1.388 1.381zM17.166 5.072l-0.258 1.036c0.071 0.018 1.738 0.452 1.738 2.149h1.067c0-2.017-1.666-2.966-2.547-3.185zM19.714 9.323h-1.067v1.067h1.067v-1.067z"></path>
</symbol>
<symbol id="icon-antenna" viewBox="0 0 32 32">
<path  d="M30.777 22.1l-8.444-8.506 0.937-4.616c0.242 0.094 0.499 0.144 0.759 0.145h0.006c0.008 0 0.017 0 0.026 0 1.193 0 2.159-0.967 2.159-2.159s-0.967-2.159-2.159-2.159c-1.193 0-2.159 0.967-2.159 2.159 0 0.26 0.046 0.508 0.13 0.739l-0.005-0.015-4.961 0.605-8.092-8.134c-0.096-0.098-0.229-0.159-0.376-0.16h-0c-0.14 0.001-0.274 0.057-0.374 0.155l-1.513 1.504c-0.097 0.097-0.156 0.23-0.156 0.377s0.060 0.281 0.156 0.377v0l0.814 0.825c-1.143 2.063-1.816 4.523-1.816 7.14 0 4.106 1.656 7.826 4.337 10.527l-0.001-0.001c0.042 0.041 0.091 0.073 0.146 0.098-0.032 0.164-0.051 0.353-0.052 0.546v6.189h-6.401c-1.473 0.001-2.666 1.194-2.668 2.667v1.067c0 0.295 0.239 0.534 0.534 0.534h24.537c0.295 0 0.534-0.239 0.534-0.534v-1.067c-0.002-1.472-1.195-2.665-2.667-2.667h-6.401v-2.742c1.003 0.21 2.024 0.318 3.049 0.32 2.58-0.003 5.005-0.663 7.118-1.823l-0.077 0.039 0.819 0.823c0.099 0.101 0.235 0.159 0.377 0.16 0.14-0.001 0.274-0.056 0.373-0.155l1.513-1.505c0.096-0.097 0.156-0.23 0.156-0.377s-0.060-0.281-0.156-0.377v0zM23.283 6.234c0.193-0.192 0.459-0.31 0.752-0.31 0.589 0 1.067 0.478 1.067 1.067s-0.478 1.067-1.067 1.067c-0 0-0 0-0 0h-0.003c-0.587-0.003-1.061-0.479-1.061-1.067 0-0.296 0.12-0.563 0.315-0.757l0-0h-0.002zM22.027 9.739l-0.599 2.945-1.176-1.182 1.774-1.764zM21.421 8.837l-1.92 1.909-1.485-1.494 3.405-0.415zM24.007 28.804c0.884 0 1.6 0.716 1.6 1.6v0 0.534h-23.47v-0.534c0-0.884 0.716-1.6 1.6-1.6h20.269zM16.54 26.67v1.067h-5.334v-1.067h5.334zM11.206 25.603v-4.054c0-1.294 1.197-2.347 2.667-2.347s2.667 1.053 2.667 2.347v4.054h-5.334zM17.606 23.907v-2.358c0-1.882-1.675-3.413-3.733-3.413-0.018-0-0.038-0-0.059-0-1.353 0-2.54 0.707-3.214 1.771l-0.009 0.016c-2.36-2.482-3.812-5.847-3.812-9.551 0-2.314 0.567-4.497 1.569-6.415l-0.036 0.077 18.604 18.711c-1.823 0.947-3.98 1.502-6.267 1.502-1.079 0-2.129-0.124-3.137-0.357l0.093 0.018zM28.897 23.224l-21.060-21.183 0.755-0.752 7.936 7.981c0.003 0 0.006 0.007 0.009 0.009l13.116 13.193-0.757 0.752z"></path>
<path  d="M13.877 20.269h-0.005c-0.001 0-0.002 0-0.002 0-0.884 0-1.6 0.716-1.6 1.6s0.715 1.599 1.598 1.6h0.005c0.001 0 0.002 0 0.002 0 0.884 0 1.6-0.716 1.6-1.6s-0.715-1.599-1.598-1.6h-0zM14.251 22.248c-0.096 0.096-0.229 0.155-0.376 0.155-0.295 0-0.534-0.239-0.534-0.534 0-0.001 0-0.001 0-0.002v0c0.002-0.292 0.238-0.529 0.53-0.531h0c0.293 0.002 0.531 0.24 0.531 0.534 0 0.148-0.060 0.281-0.157 0.378l-0 0h0.005z"></path>
</symbol>
</defs>
</svg>
